<?xml version="1.0" encoding="UTF-8"?>
<svg width="961px" height="171px" viewBox="0 0 961 171" version="1.1" xmlns="http://www.w3.org/2000/svg" xmlns:xlink="http://www.w3.org/1999/xlink">
    <!-- Generator: Sketch 52.6 (67491) - http://www.bohemiancoding.com/sketch -->
    <title>Shape</title>
    <desc>Created with Sketch.</desc>
    <g id="Page-1" stroke="none" stroke-width="1" fill="none" fill-rule="evenodd">
        <g id="monzo-logo-on-dark" transform="translate(-1.000000, 0.000000)" fill="#FFFFFF" fill-rule="nonzero">
            <path d="M1,166.3 L1,5.3 L43.9,5.3 L43.9,26.9 C52.6321933,11.0361885 69.6092986,1.50110195 87.7,2.3 C106.288791,1.72023969 123.603536,11.7139848 132.4,28.1 C149.2,10.4 162.1,2.3 182.2,2.3 C218.5,2.3 238.9,22.7 238.9,60.2 L238.9,166.3 L192.7,166.3 L192.7,79.1 C192.7,56.6 187.9,46.4 170.2,46.4 C152.2,46.4 142.6,57.4 142.6,79.1 L142.6,166.3 L96,166.3 L96,79.1 C96,56.6 91.2,46.4 73.5,46.4 C55.5,46.4 45.9,57.4 45.9,79.1 L45.9,166.3 L0.9,166.3 L1,166.3 Z M293.6,26.3 C317.726513,1.62840345 354.374576,-6.00854413 386.347424,6.97272409 C418.320271,19.9539923 439.27204,50.9769973 439.371306,85.4844816 C439.470572,119.991966 418.697634,151.134998 386.8,164.3 C376.278373,168.640797 364.98038,170.784693 353.6,170.6 C330.484306,171.269148 308.220283,161.852561 292.6,144.8 C277.231874,128.871469 268.753668,107.532256 269,85.4 C268.922499,63.1941825 277.789222,41.8924224 293.6,26.3 Z M353.9,125.6 C370.152524,126.2947 385.191913,117.02871 391.880153,102.199867 C398.568394,87.3710249 395.559068,69.9645388 384.280468,58.2418986 C373.001867,46.5192584 355.724497,42.8403607 340.648566,48.9512888 C325.572636,55.0622169 315.733095,69.7327737 315.8,86 C315.409039,107.408762 332.393317,125.108169 353.8,125.6 L353.9,125.6 Z M469.2,166.3 L469.2,5.3 L514.2,5.3 L513.6,26.9 C523.151885,10.6679108 541.000286,1.1642168 559.8,2.3 C593.1,2.3 614.7,23.3 614.7,60.2 L614.7,166.3 L567.3,166.3 L567.3,79.1 C567.3,56.6 562.5,46.4 544.2,46.4 C525.6,46.4 515.7,57.4 515.7,79.1 L515.7,166.3 L469.2,166.3 Z M815.8,26.2 C839.926513,1.52840345 876.574576,-6.10854413 908.547424,6.87272409 C940.520271,19.8539923 961.47204,50.8769973 961.571306,85.3844816 C961.670572,119.891966 940.897634,151.034998 909,164.2 C898.484751,168.57233 887.187061,170.750198 875.8,170.6 C852.684306,171.269148 830.420283,161.852561 814.8,144.8 C799.431874,128.871469 790.953668,107.532256 791.2,85.4 C791.095561,63.1595424 799.964371,41.8167131 815.8,26.2 Z M876.1,125.5 C892.361595,126.194867 907.40756,116.918059 914.090056,102.076679 C920.772551,87.235299 917.744745,69.8205743 906.445046,58.105664 C895.145348,46.3907538 877.851172,42.7367556 862.778407,48.8795631 C847.705643,55.0223707 837.892153,69.7239233 838,86 C837.665281,107.408211 854.693647,125.062291 876.1,125.5 Z M649.2,166.3 L649.2,132.8 L715.5,46.9 L649.2,46.9 L649.2,5.3 L769,5.3 L769,43.3 L710.5,124.7 L770.2,124.7 L770.2,166.3 L649.2,166.3 Z" id="Shape"></path>
        </g>
    </g>
</svg>