<?xml version="1.0" encoding="UTF-8"?>
<svg width="1024px" height="277px" viewBox="0 0 1024 277" version="1.1" xmlns="http://www.w3.org/2000/svg" xmlns:xlink="http://www.w3.org/1999/xlink">
    <!-- Generator: Sketch 52.6 (67491) - http://www.bohemiancoding.com/sketch -->
    <title>Shape</title>
    <desc>Created with Sketch.</desc>
    <g id="Page-1" stroke="none" stroke-width="1" fill="none" fill-rule="evenodd">
        <g id="client-logo-3" fill="#FFFFFF" fill-rule="nonzero">
            <path d="M140.803,258.904 C125.399,261.609 109.724,262.42 93.509,264.58 L44.051,119.724 L44.051,270.797 C28.647,272.418 14.594,274.58 0,276.742 L0,-7.10542736e-15 L41.08,-7.10542736e-15 L97.292,157.021 L97.292,-7.10542736e-15 L140.803,-7.10542736e-15 L140.803,258.904 Z M225.934,101.346 C242.691,101.346 268.365,100.535 283.769,100.535 L283.769,143.775 C264.58,143.775 242.15,143.775 225.934,144.586 L225.934,208.908 C251.339,207.287 276.743,205.123 302.416,204.312 L302.416,245.929 L182.692,255.39 L182.692,2.13162821e-14 L302.416,2.13162821e-14 L302.416,43.241 L225.934,43.241 L225.934,101.346 Z M463.218,43.242 L418.356,43.242 L418.356,242.15 C403.762,242.15 389.168,242.15 375.117,242.689 L375.117,43.242 L330.255,43.242 L330.255,-3.55271368e-14 L463.22,-3.55271368e-14 L463.218,43.242 Z M533.484,98.374 L592.671,98.374 L592.671,141.614 L533.484,141.614 L533.484,239.718 L491.051,239.718 L491.051,3.55271368e-14 L611.859,3.55271368e-14 L611.859,43.241 L533.484,43.241 L533.484,98.374 Z M682.125,201.881 C706.719,202.42 731.581,204.315 755.635,205.664 L755.635,248.365 C716.989,245.931 678.342,243.502 638.885,242.689 L638.885,7.10542736e-15 L682.125,7.10542736e-15 L682.125,201.881 Z M792.119,251.338 C805.902,252.15 820.496,252.961 834.549,254.58 L834.549,-2.13162821e-14 L792.119,-2.13162821e-14 L792.119,251.338 Z M1024,-7.10542736e-15 L969.137,131.615 L1024,276.742 C1007.783,274.58 991.568,271.607 975.352,268.904 L944.274,188.91 L912.657,262.42 C896.979,259.715 881.845,258.904 866.173,256.742 L921.845,129.992 L871.576,2.13162821e-14 L918.058,2.13162821e-14 L946.435,72.699 L976.705,2.13162821e-14 L1024,-7.10542736e-15 Z" id="Shape"></path>
        </g>
    </g>
</svg>