<?xml version="1.0" encoding="UTF-8"?>
<svg width="93px" height="22px" viewBox="0 0 93 22" version="1.1" xmlns="http://www.w3.org/2000/svg" xmlns:xlink="http://www.w3.org/1999/xlink">
    <!-- Generator: Sketch 52.6 (67491) - http://www.bohemiancoding.com/sketch -->
    <title>Group</title>
    <desc>Created with Sketch.</desc>
    <g id="Page-1" stroke="none" stroke-width="1" fill="none" fill-rule="evenodd">
        <g id="Group" fill="#FFFFFF">
            <path d="M92.669,9.69 C92.669,4.308 88.919,0.523 83.662,0.523 C76.97,0.523 72.485,5.385 72.485,12.328 C72.485,17.746 76.271,21.495 81.617,21.495 C86.479,21.495 90.103,19.145 91.592,15.395 L86.192,15.395 C85.474,16.562 83.949,17.297 82.084,17.297 C79.213,17.297 77.419,15.395 77.257,12.704 L92.364,12.704 C92.561,11.682 92.669,10.803 92.669,9.69 Z M77.67,9.062 C78.154,6.587 80.559,4.613 83.465,4.613 C85.977,4.613 87.878,6.443 87.878,9.063 L77.67,9.063 L77.67,9.062 Z M57.971,21.01 L58.94,15.844 C61.9,16.436 62.349,14.767 63.12,10.749 L63.497,8.757 C64.573,3.142 66.744,0.343 72.952,1.097 L71.982,6.264 C69.022,5.672 68.502,7.914 67.839,11.394 L67.462,13.386 C66.385,19.073 64.142,21.764 57.972,21.011 L57.971,21.01 Z M50.723,21.029 L54.383,1.007 L59.209,1.007 L55.567,21.029 L50.723,21.029 Z M23.076,1.007 L27.759,1.007 L29.284,15.485 L35.42,1.007 L40.066,1.007 L41.7,15.629 L47.62,1.007 L52.285,1.007 L43.799,21.029 L38.489,21.029 L36.765,7.25 L30.9,21.03 L25.769,21.03 L23.076,1.007 Z" id="Shape" fill-rule="nonzero"></path>
            <polygon id="Path" points="5.584 6.317 0.023 11.627 9.477 11.627 10.464 9.314 5.674 9.314 8.67 6.317 6.93 3.321 15.057 3.321 7.557 21.029 10.374 21.029 18.86 1.007 2.463 1.007"></polygon>
        </g>
    </g>
</svg>