<?xml version="1.0" encoding="UTF-8"?>
<svg width="106px" height="25px" viewBox="0 0 106 25" version="1.1" xmlns="http://www.w3.org/2000/svg" xmlns:xlink="http://www.w3.org/1999/xlink">
    <!-- Generator: Sketch 52.6 (67491) - http://www.bohemiancoding.com/sketch -->
    <title>Shape</title>
    <desc>Created with Sketch.</desc>
    <g id="Page-1" stroke="none" stroke-width="1" fill="none" fill-rule="evenodd">
        <g id="revolut-logo" fill="#FFFFFF" fill-rule="nonzero">
            <path d="M68.664,8.915 C66.88,7.303 64.726,6.515 62.236,6.515 C59.78,6.515 57.626,7.304 55.841,8.915 C54.057,10.492 53.15,12.687 53.15,15.499 C53.15,18.311 54.057,20.504 55.841,22.116 C57.625,23.693 59.78,24.482 62.236,24.482 C64.726,24.482 66.88,23.693 68.664,22.116 C70.482,20.504 71.389,18.31 71.389,15.499 C71.389,12.688 70.481,10.492 68.664,8.915 Z M58.872,19.098 C57.931,18.173 57.457,16.972 57.457,15.498 C57.457,14.024 57.927,12.824 58.872,11.932 C59.7575164,11.0330954 60.9734088,10.5374105 62.235,10.561 C63.5069269,10.5371717 64.7337478,11.0321603 65.633,11.932 C66.607,12.824 67.081,14.023 67.081,15.498 C67.081,16.973 66.611,18.172 65.633,19.098 C64.692,19.989 63.547,20.435 62.235,20.435 C60.9806807,20.4549736 59.7702179,19.9737399 58.872,19.098 Z M77.753,24.001 L77.753,0.473 L73.513,0.473 L73.513,24.001 L77.753,24.001 Z M91.438,6.995 L91.438,16.383 C91.438,18.645 90.238,20.145 87.954,20.145 C85.631,20.145 84.463,18.647 84.463,16.383 L84.463,6.995 L80.215,6.995 L80.215,17.103 C80.215,21.019 82.638,24.481 87.954,24.481 L87.987,24.481 C93.27,24.481 95.689,20.942 95.689,17.103 L95.689,6.995 L91.438,6.995 Z M48.638,6.995 L44.398,18.515 L40.158,6.995 L35.649,6.995 L42.415,24.002 L46.387,24.002 L53.152,6.995 L48.638,6.995 Z M35.669,15.018 C35.669,12.55 34.896,10.527 33.381,8.915 C31.866,7.303 29.917,6.515 27.527,6.515 C25.071,6.515 22.983,7.373 21.267,9.052 C19.583,10.733 18.744,12.858 18.744,15.498 C18.744,18.138 19.585,20.299 21.234,21.978 C22.918,23.659 24.937,24.481 27.326,24.481 C30.996,24.481 33.586,22.835 35.165,19.509 L32.003,17.657 C30.962,19.748 29.445,20.777 27.393,20.777 C24.87,20.777 23.086,19.131 22.816,16.526 L35.668,16.526 L35.668,15.017 L35.669,15.018 Z M27.39,9.806 C29.779,9.806 31.362,11.177 31.765,13.372 L22.814,13.372 C23.455,11.349 25.203,9.806 27.391,9.806 L27.39,9.806 Z M18.743,24.001 L13.054,13.853 C16.653,12.516 18.437,10.185 18.437,6.79 C18.441,2.641 15.208,0 10.06,0 L0,0 L0,24.001 L4.442,24.001 L4.442,14.264 L8.212,14.264 L13.662,24.002 L18.743,24.001 Z M10.06,3.977 C12.685,3.977 13.998,5.04 13.998,7.131 C13.998,9.222 12.684,10.285 10.06,10.285 L4.442,10.285 L4.442,3.977 L10.06,3.977 Z M102.877,24.481 C100.148,24.481 97.935,22.225 97.935,19.441 L97.935,2.4 L102.175,2.4 L102.175,7.001 L105.811,7.001 L105.811,10.498 L102.175,10.498 L102.175,19.163 C102.175,19.979 102.824,20.64 103.626,20.64 L105.811,20.64 L105.811,24.481 L102.877,24.481 Z" id="Shape"></path>
        </g>
    </g>
</svg>