<?xml version="1.0" encoding="UTF-8"?>
<svg width="70px" height="60px" viewBox="0 0 70 60" version="1.1" xmlns="http://www.w3.org/2000/svg" xmlns:xlink="http://www.w3.org/1999/xlink">
    <!-- Generator: Sketch 52.6 (67491) - http://www.bohemiancoding.com/sketch -->
    <title>redis</title>
    <desc>Created with Sketch.</desc>
    <g id="Page-1" stroke="none" stroke-width="1" fill="none" fill-rule="evenodd">
        <g id="redis">
            <path d="M67.257379,46.1701469 C63.5218181,48.1309246 44.1699831,56.1430964 40.0500849,58.3056701 C35.9301868,60.4690725 33.6414459,60.4479399 30.3869238,58.8812238 C27.1324018,57.3145077 6.53867181,48.9381086 2.82903516,47.1526075 C0.974834079,46.2600642 0,45.507162 0,44.7956964 L0,37.6706812 C0,37.6706812 26.8102004,31.7933205 31.1387271,30.2299194 C35.4668422,28.6661039 36.9683912,28.6097502 40.6516921,29.9684548 C44.3354045,31.3271593 66.3594947,35.3286872 70,36.6712315 C70,36.6712315 69.998354,43.0346429 69.998354,43.6951416 C69.9987655,44.399563 69.1589021,45.1723547 67.257379,46.1701469 Z" id="Path" fill="#A41E11"></path>
            <path d="M67.2561053,39.4599222 C63.520664,41.3788046 44.1694486,49.2239097 40.0496823,51.3411712 C35.929916,53.4592441 33.6412484,53.4385542 30.3868306,51.9046654 C27.1320012,50.3715879 6.53934208,42.1690758 2.8298242,40.4217975 C-0.879693681,38.6737078 -0.95746394,37.4704509 2.68662817,36.0639467 C6.33030879,34.6566311 26.8102217,26.7348518 31.1390212,25.2038028 C35.4669978,23.6735651 36.9684987,23.6175808 40.6516817,24.9482222 C44.3352762,26.278458 63.5708649,33.8270086 67.2108422,35.1414227 C70.8516424,36.4570539 70.9915466,37.5402285 67.2561053,39.4599222 Z" id="Path" fill="#D82C20"></path>
            <path d="M67.257379,35.1700361 C63.5218181,37.1308178 44.1699831,45.1430063 40.0500849,47.3064132 C35.9301868,49.4689914 33.6414459,49.4478587 30.3869238,47.8811394 C27.1319903,46.3152488 6.53867181,37.9380036 2.82903516,36.1524988 C0.974834079,35.2599536 0,34.5078786 0,33.7964115 L0,26.6705527 C0,26.6705527 26.8102004,20.7935942 31.1387271,19.2297755 C35.4668422,17.6663711 36.9683912,17.6096029 40.6516921,18.9683103 C44.3354045,20.3270177 66.3594947,24.3277252 70,25.6706866 C70,25.6706866 69.998354,32.0341113 69.998354,32.69544 C69.9987655,33.3994485 69.1589021,34.1722418 67.257379,35.1700361 Z" id="Path" fill="#A41E11"></path>
            <path d="M67.2561053,26.4597847 C63.520664,28.3794865 44.1694486,36.2238134 40.0496823,38.3418952 C35.929916,40.4591657 33.6412484,40.4384757 30.3868306,38.9045804 C27.1320012,37.3714965 6.53934208,29.1693554 2.8298242,27.421664 C-0.879693681,25.6739727 -0.95746394,24.4707107 2.68662817,23.0633891 C6.33030879,21.6568789 26.8102217,13.7346605 31.1390212,12.2040107 C35.4669978,10.6733609 36.9684987,10.617782 40.6516817,11.9480234 C44.3352762,13.2782648 63.5708649,20.8264416 67.2108422,22.1412669 C70.8516424,23.456498 70.9915466,24.5400829 67.2561053,26.4597847 Z" id="Path" fill="#D82C20"></path>
            <path d="M67.257379,23.1695022 C63.5218181,25.1303009 44.1699831,33.142973 40.0500849,35.3063986 C35.9301868,37.4689955 33.6414459,37.4478626 30.3869238,35.8811298 C27.1319903,34.3152256 6.53867181,25.9374936 2.82903516,24.1523878 C0.974834079,23.2598349 0,22.507339 0,21.7962801 L0,14.6703598 C0,14.6703598 26.8102004,8.79335049 31.1387271,7.22993259 C35.4668422,5.66610033 36.9683912,5.60974601 40.6516921,6.96846514 C44.3354045,8.32718427 66.3594947,12.3279263 70,13.6708994 C70,13.6708994 69.998354,20.034379 69.998354,20.6952991 C69.9987655,21.3988993 69.1589021,22.1716993 67.257379,23.1695022 Z" id="Path" fill="#A41E11"></path>
            <path d="M67.2561053,15.4596009 C63.520664,17.3793199 44.1694486,25.2241224 40.0496823,27.3418175 C35.929916,29.4591068 33.6412484,29.4384167 30.3868306,27.9049134 C27.1324127,26.3714101 6.53934208,18.1696015 2.8298242,16.4218945 C-0.879693681,14.6741876 -0.95746394,13.4705092 2.68662817,12.0635808 C6.33030879,10.6566523 26.8102217,2.73517462 31.1390212,1.20410543 C35.4669978,-0.326963747 36.9684987,-0.382137411 40.6516817,0.948521549 C44.3352762,2.27877482 63.5708649,9.82701891 67.2108422,11.141856 C70.8516424,12.4562874 70.9915466,13.5402876 67.2561053,15.4596009 Z" id="Path" fill="#D82C20"></path>
            <polygon id="Path" fill="#FFFFFF" points="45 9.69545455 38.7959891 10.3909091 37.4070314 14 35.1636544 9.97272727 28 9.27727273 33.3453825 7.19545455 31.7417678 4 36.7462243 6.11363636 41.4644714 4.44545455 40.1891557 7.75"></polygon>
            <polygon id="Path" fill="#FFFFFF" points="35.4680365 25 25 20.4255441 40 18"></polygon>
            <ellipse id="Oval" fill="#FFFFFF" cx="21.5" cy="14.5" rx="8.5" ry="3.5"></ellipse>
            <polygon id="Path" fill="#7A0C00" points="52 10 62 13.5018991 52.0085727 17"></polygon>
            <polygon id="Path" fill="#AD2115" points="41 14.2059732 51.9914828 10 52 17.592173 50.9225707 18"></polygon>
        </g>
    </g>
</svg>