<?xml version="1.0" encoding="UTF-8"?>
<svg width="222px" height="223px" viewBox="0 0 222 223" version="1.1" xmlns="http://www.w3.org/2000/svg" xmlns:xlink="http://www.w3.org/1999/xlink">
    <!-- Generator: Sketch 52.6 (67491) - http://www.bohemiancoding.com/sketch -->
    <title>Slice</title>
    <desc>Created with Sketch.</desc>
    <g id="Page-1" stroke="none" stroke-width="1" fill="none" fill-rule="evenodd">
        <g id="go" transform="translate(-7.000000, -4.000000)">
            <rect id="Rectangle" fill="#FFFFFF" fill-rule="nonzero" x="0" y="0" width="232" height="232" rx="8"></rect>
            <path d="M29.2,101.1 C28.8,101.1 28.7,100.9 28.9,100.6 L31,97.9 C31.2,97.6 31.7,97.4 32.1,97.4 L67.8,97.4 C68.2,97.4 68.3,97.7 68.1,98 L66.4,100.6 C66.2,100.9 65.7,101.2 65.4,101.2 L29.2,101.1 Z" id="Path" fill="#007D9C"></path>
            <path d="M14.1,110.3 C13.7,110.3 13.6,110.1 13.8,109.8 L15.9,107.1 C16.1,106.8 16.6,106.6 17,106.6 L62.6,106.6 C63,106.6 63.2,106.9 63.1,107.2 L62.3,109.6 C62.2,110 61.8,110.2 61.4,110.2 L14.1,110.3 Z" id="Path" fill="#007D9C"></path>
            <path d="M38.3,119.5 C37.9,119.5 37.8,119.2 38,118.9 L39.4,116.4 C39.6,116.1 40,115.8 40.4,115.8 L60.4,115.8 C60.8,115.8 61,116.1 61,116.5 L60.8,118.9 C60.8,119.3 60.4,119.6 60.1,119.6 L38.3,119.5 Z" id="Path" fill="#007D9C"></path>
            <g id="Group" transform="translate(68.000000, 77.000000)" fill="#007D9C">
                <path d="M74.1,22.3 C67.8,23.9 63.5,25.1 57.3,26.7 C55.8,27.1 55.7,27.2 54.4,25.7 C52.9,24 51.8,22.9 49.7,21.9 C43.4,18.8 37.3,19.7 31.6,23.4 C24.8,27.8 21.3,34.3 21.4,42.4 C21.5,50.4 27,57 34.9,58.1 C41.7,59 47.4,56.6 51.9,51.5 C52.8,50.4 53.6,49.2 54.6,47.8 C51,47.8 46.5,47.8 35.3,47.8 C33.2,47.8 32.7,46.5 33.4,44.8 C34.7,41.7 37.1,36.5 38.5,33.9 C38.8,33.3 39.5,32.3 41,32.3 L77.4,32.3 C77.2,35 77.2,37.7 76.8,40.4 C75.7,47.6 73,54.2 68.6,60 C61.4,69.5 52,75.4 40.1,77 C30.3,78.3 21.2,76.4 13.2,70.4 C5.8,64.8 1.6,57.4 0.5,48.2 C-0.8,37.3 2.4,27.5 9,18.9 C16.1,9.6 25.5,3.7 37,1.6 C46.4,-0.1 55.4,1 63.5,6.5 C68.8,10 72.6,14.8 75.1,20.6 C75.7,21.5 75.3,22 74.1,22.3 Z" id="Path"></path>
                <path d="M107.2,77.6 C98.1,77.4 89.8,74.8 82.8,68.8 C76.9,63.7 73.2,57.2 72,49.5 C70.2,38.2 73.3,28.2 80.1,19.3 C87.4,9.7 96.2,4.7 108.1,2.6 C118.3,0.8 127.9,1.8 136.6,7.7 C144.5,13.1 149.4,20.4 150.7,30 C152.4,43.5 148.5,54.5 139.2,63.9 C132.6,70.6 124.5,74.8 115.2,76.7 C112.5,77.2 109.8,77.3 107.2,77.6 Z M131,37.2 C130.9,35.9 130.9,34.9 130.7,33.9 C128.9,24 119.8,18.4 110.3,20.6 C101,22.7 95,28.6 92.8,38 C91,45.8 94.8,53.7 102,56.9 C107.5,59.3 113,59 118.3,56.3 C126.2,52.2 130.5,45.8 131,37.2 Z" id="Shape" fill-rule="nonzero"></path>
            </g>
        </g>
    </g>
</svg>